<?xml version="1.0" encoding="utf-8"?>
<!-- Generator: Adobe Illustrator 22.0.1, SVG Export Plug-In . SVG Version: 6.00 Build 0)  -->
<svg version="1.1" id="Слой_1" xmlns="http://www.w3.org/2000/svg" xmlns:xlink="http://www.w3.org/1999/xlink" x="0px" y="0px"
	 viewBox="0 0 550 550" style="enable-background:new 0 0 550 550;" xml:space="preserve">
<style type="text/css">
	.st0{fill:none;stroke:#CFE5FF;}
	.st1{fill:#4CA1FC;}
</style>
<g id="El1">
	<path id="Фигура_4_копия_4_1_" class="st0" d="M114,48.6l293.5-15.8c116.9,17.5,61.3,143.7,61.3,143.7L312,489.8
		C231.6,593.4,175,490,175,490L46.6,192.8C16,79.4,110.3,49.6,110.3,49.6L114,48.6z"/>
	<g id="Фигура_4_копия_6">
		
			<image style="overflow:visible;opacity:0.3;" width="364" height="334" xlink:href="2255854A.png"  transform="matrix(1 0 0 1 227 54)">
		</image>
		<g>
			<path class="st1" d="M406.3,86.4l95.9,98.3c29.8,46.5-31.6,65.8-31.6,65.8l-158.2,41.4c-61.1,3.7-42.3-48.1-42.3-48.1l64.9-136.7
				c30.4-45.7,69.9-21.7,69.9-21.7L406.3,86.4z"/>
		</g>
	</g>
	<path id="Фигура_4_копия_5" class="st1" d="M359.8,351.8l37.9-2.1c15.1,2.3,7.9,18.6,7.9,18.6l-20.2,40.5
		c-10.4,13.4-17.7,0-17.7,0l-16.6-38.4c-3.9-14.6,8.2-18.5,8.2-18.5L359.8,351.8z"/>
</g>
</svg>
