<?xml version="1.0" encoding="utf-8"?>
<!-- Generator: Adobe Illustrator 22.0.1, SVG Export Plug-In . SVG Version: 6.00 Build 0)  -->
<svg version="1.1" id="Слой_1" xmlns="http://www.w3.org/2000/svg" xmlns:xlink="http://www.w3.org/1999/xlink" x="0px" y="0px"
	 viewBox="0 0 700 800" style="enable-background:new 0 0 700 800;" xml:space="preserve">
<style type="text/css">
	.st0{opacity:0.25;fill:none;stroke:#3192FD;enable-background:new    ;}
	.st1{fill:#4CA1FC;}
	.st2{opacity:4.000000e-02;fill:#4CA1FC;enable-background:new    ;}
</style>
<path id="Фигура_4_копия_7" class="st0" d="M607.3,66.8l215.5,199.4c68.8,95.9-60.4,143.9-60.4,143.9L428.7,515.7
	c-130.3,14.5-95.5-98.1-95.5-98.1L457,118.8C517,18,604,64.9,604,64.9L607.3,66.8z"/>
<path id="Фигура_4_копия_14" class="st1" d="M428.7,83.4l-29.8-23.5c-9.9-11.7,6.3-19.2,6.3-19.2l41.9-17.1
	c16.6-3.2,13.3,11.7,13.3,11.7l-12.9,39.8c-6.7,13.6-18.4,8.5-18.4,8.5L428.7,83.4z"/>
<path id="Фигура_4_копия_8" class="st2" d="M427.3,360.9l198.4,183.9c63.3,88.5-55.6,132.7-55.6,132.7l-307,97.3
	c-119.9,13.3-88-90.5-88-90.5L289,408.8c55.1-92.9,135.2-49.6,135.2-49.6L427.3,360.9z"/>
</svg>
