<?xml version="1.0" encoding="utf-8"?>
<!-- Generator: Adobe Illustrator 22.0.1, SVG Export Plug-In . SVG Version: 6.00 Build 0)  -->
<svg version="1.1" id="Слой_1" xmlns="http://www.w3.org/2000/svg" xmlns:xlink="http://www.w3.org/1999/xlink" x="0px" y="0px"
	 viewBox="0 0 470 700" style="enable-background:new 0 0 470 700;" xml:space="preserve">
<style type="text/css">
	.st0{opacity:0.25;fill:none;stroke:#3295FE;enable-background:new    ;}
	.st1{fill:#4CA1FC;}
	.st2{opacity:0.8;fill:#3192FD;enable-background:new    ;}
</style>
<path id="Фигура_4_копия_25" class="st0" d="M575,330.2l-67.5,285.9c-49.7,107.2-155.3,18.3-155.3,18.3L95.4,395.9
	c-76.9-106.3,38.4-131.5,38.4-131.5L455.5,225C573,227.6,575,326.4,575,326.4L575,330.2z"/>
<path id="Фигура_4_копия_24" class="st1" d="M203.1,507.5l43,3c16.7,4.7,6.3,22,6.3,22l-28.5,42.7
	c-13.6,13.6-19.9-2.5-19.9-2.5l-13.3-45.6c-2.4-17,11.9-19.7,11.9-19.7L203.1,507.5z"/>
<path id="Фигура_4_копия_25-2" class="st2" d="M680.5,126.8l-97.5,366c-66.1,138.6-188.6,31.8-188.6,31.8L97.6,236.8
	C10.7,106.4,151.4,68,151.4,68L542.1,0.2C683.8-3.1,680.8,122,680.8,122L680.5,126.8z"/>
</svg>
