<?xml version="1.0" encoding="utf-8"?>
<!-- Generator: Adobe Illustrator 22.0.1, SVG Export Plug-In . SVG Version: 6.00 Build 0)  -->
<svg version="1.1" id="Слой_1" xmlns="http://www.w3.org/2000/svg" xmlns:xlink="http://www.w3.org/1999/xlink" x="0px" y="0px"
	 viewBox="0 0 400 600" style="enable-background:new 0 0 400 600;" xml:space="preserve">
<style type="text/css">
	.st0{opacity:0.8;fill:#3192FD;enable-background:new    ;}
	.st1{opacity:0.25;fill:none;stroke:#3192FD;enable-background:new    ;}
	.st2{fill:#4CA1FC;}
</style>
<path id="Фигура_4_копия_29" class="st0" d="M-296,421.5l36.7-377c42.7-147.4,180.9-62.1,180.9-62.1l339.6,235.8
	c106.9,114.5-25.6,175.3-25.6,175.3L-138.9,524c-139.3,26.3-156.6-97.7-156.6-97.7L-296,421.5z"/>
<path id="Фигура_4_копия_26" class="st1" d="M-449.7,534.1l28.8-453.6C-372.9-95.9-189,12.4-189,12.4l452.9,297.3
	c144.6,142.3-24.4,210.6-24.4,210.6l-479.8,143.4C-420,690.1-448.7,539.9-448.7,539.9L-449.7,534.1z"/>
<path id="Фигура_4_копия_27" class="st2" d="M199,429.7l-24.7-35.6c-6.9-16,13.3-18.8,13.3-18.8l51.5-4.6
	c19.3,2.1,10.7,17.2,10.7,17.2L222.3,427c-11.9,12.6-22.9,3.1-22.9,3.1L199,429.7z"/>
</svg>
