<?xml version="1.0" encoding="utf-8"?>
<!-- Generator: Adobe Illustrator 22.0.1, SVG Export Plug-In . SVG Version: 6.00 Build 0)  -->
<svg version="1.1" id="Слой_1" xmlns="http://www.w3.org/2000/svg" xmlns:xlink="http://www.w3.org/1999/xlink" x="0px" y="0px"
	 viewBox="0 0 550 350" style="enable-background:new 0 0 550 350;" xml:space="preserve">
<style type="text/css">
	.st0{fill:none;stroke:#CFE5FF;}
	.st1{fill:#4CA1FC;}
</style>
<path id="Фигура_4_копия_4_2_" class="st0" d="M155.8,350.1L36.7,231.7C-40.9,116.3,82.1,93.5,82.1,93.5l342.2-30.6
	c124.3,6.8,123,111.7,123,111.7l-0.2,4.1l-24.4,90.1"/>
<g id="Фигура_4_копия_6">
	
		<image style="overflow:visible;opacity:0.3;enable-background:new    ;" width="284" height="265" xlink:href="1DFE7E32.png"  transform="matrix(0.8803 0 0 0.8803 176.3333 236.392)">
	</image>
	<g>
		<path class="st1" d="M346.5,263.3l-12.1,82.5c-11.4,31.5-43.4,9-43.4,9l-78.3-61.1c-24.3-28.2,7.7-38.1,7.7-38.1l89.8-19
			c33.3-2.2,36.3,25.7,36.3,25.7L346.5,263.3z"/>
	</g>
</g>
</svg>
